<svg width="20" height="20" viewBox="0 0 20 20" fill="none" xmlns="http://www.w3.org/2000/svg">
<g clip-path="url(#clip0)">
<path d="M4.5676 1.66007C4.49381 1.56515 4.40066 1.48701 4.29435 1.43085C4.18804 1.3747 4.071 1.3418 3.951 1.33435C3.831 1.3269 3.71078 1.34507 3.59835 1.38765C3.48591 1.43024 3.38381 1.49625 3.29885 1.58132L2.00635 2.87507C1.4026 3.48007 1.1801 4.33632 1.44385 5.08757C2.53852 8.19706 4.31922 11.0202 6.65385 13.3476C8.98126 15.6822 11.8044 17.4629 14.9139 18.5576C15.6651 18.8213 16.5214 18.5988 17.1264 17.9951L18.4188 16.7026C18.5039 16.6176 18.5699 16.5155 18.6125 16.4031C18.6551 16.2906 18.6733 16.1704 18.6658 16.0504C18.6584 15.9304 18.6255 15.8134 18.5693 15.7071C18.5132 15.6008 18.435 15.5076 18.3401 15.4338L15.4564 13.1913C15.3549 13.1127 15.237 13.0581 15.1114 13.0317C14.9858 13.0052 14.8559 13.0077 14.7313 13.0388L11.9939 13.7226C11.6285 13.8139 11.2456 13.8091 10.8827 13.7085C10.5197 13.608 10.1889 13.4151 9.9226 13.1488L6.8526 10.0776C6.58606 9.81137 6.39301 9.48068 6.29224 9.1177C6.19148 8.75472 6.18643 8.37183 6.2776 8.00632L6.9626 5.26882C6.99373 5.14432 6.99619 5.01437 6.96977 4.88878C6.94335 4.76319 6.88876 4.64524 6.8101 4.54382L4.5676 1.66007ZM2.3551 0.638824C2.57384 0.42001 2.83664 0.250237 3.12602 0.140775C3.41541 0.0313137 3.72478 -0.0153305 4.03358 0.00393988C4.34238 0.0232102 4.64354 0.107954 4.91708 0.252544C5.19061 0.397135 5.43026 0.598263 5.6201 0.842574L7.8626 3.72507C8.27385 4.25382 8.41885 4.94257 8.25635 5.59257L7.5726 8.33007C7.53725 8.47186 7.53916 8.62038 7.57814 8.76121C7.61713 8.90204 7.69187 9.0304 7.7951 9.13382L10.8664 12.2051C10.9699 12.3085 11.0985 12.3834 11.2395 12.4224C11.3806 12.4614 11.5294 12.4632 11.6714 12.4276L14.4076 11.7438C14.7284 11.6636 15.0632 11.6574 15.3867 11.7256C15.7102 11.7938 16.014 11.9347 16.2751 12.1376L19.1576 14.3801C20.1939 15.1863 20.2889 16.7176 19.3614 17.6438L18.0689 18.9363C17.1439 19.8613 15.7614 20.2676 14.4726 19.8138C11.1741 18.6532 8.17919 16.7649 5.7101 14.2888C3.23421 11.8201 1.34586 8.82565 0.1851 5.52757C-0.2674 4.24007 0.13885 2.85632 1.06385 1.93132L2.35635 0.638824H2.3551Z" fill="#FF5432"/>
</g>
<defs>
<clipPath id="clip0">
<rect width="20" height="20" fill="white"/>
</clipPath>
</defs>
</svg>
