<svg width="24" height="24" viewBox="0 0 24 24" fill="none" xmlns="http://www.w3.org/2000/svg">
<path d="M9.50244 7.75C8.70679 7.75 7.94373 8.06607 7.38112 8.62868C6.81851 9.19129 6.50244 9.95435 6.50244 10.75C6.50244 11.5456 6.81851 12.3087 7.38112 12.8713C7.94373 13.4339 8.70679 13.75 9.50244 13.75C10.2981 13.75 11.0612 13.4339 11.6238 12.8713C12.1864 12.3087 12.5024 11.5456 12.5024 10.75C12.5024 9.95435 12.1864 9.19129 11.6238 8.62868C11.0612 8.06607 10.2981 7.75 9.50244 7.75V7.75ZM7.75244 10.75C7.75244 10.2859 7.93682 9.84075 8.26501 9.51256C8.59319 9.18437 9.03831 9 9.50244 9C9.96657 9 10.4117 9.18437 10.7399 9.51256C11.0681 9.84075 11.2524 10.2859 11.2524 10.75C11.2524 11.2141 11.0681 11.6592 10.7399 11.9874C10.4117 12.3156 9.96657 12.5 9.50244 12.5C9.03831 12.5 8.59319 12.3156 8.26501 11.9874C7.93682 11.6592 7.75244 11.2141 7.75244 10.75Z" fill="#FF5432"/>
<path d="M16 16L10.956 21.355C10.769 21.5536 10.5434 21.7118 10.293 21.8199C10.0426 21.9281 9.77276 21.9838 9.50001 21.9838C9.22727 21.9838 8.9574 21.9281 8.70701 21.8199C8.45662 21.7118 8.231 21.5536 8.04401 21.355L3.00001 16H3.01901L3.01051 15.99L3.00001 15.9775C1.70536 14.4463 0.996572 12.5051 1.00001 10.5C1.00001 5.8055 4.80551 2 9.50001 2C14.1945 2 18 5.8055 18 10.5C18.0035 12.5051 17.2947 14.4463 16 15.9775L15.9895 15.99L15.981 16H16V16ZM15.0285 15.1905C16.1426 13.8819 16.753 12.2186 16.75 10.5C16.75 6.496 13.504 3.25 9.50001 3.25C5.49601 3.25 2.25001 6.496 2.25001 10.5C2.25001 12.29 2.89701 13.926 3.97151 15.1905L4.12551 15.372L8.95401 20.4975C9.02413 20.572 9.10874 20.6313 9.20264 20.6718C9.29653 20.7124 9.39773 20.7333 9.50001 20.7333C9.60229 20.7333 9.70349 20.7124 9.79739 20.6718C9.89128 20.6313 9.97589 20.572 10.046 20.4975L14.8745 15.372L15.0285 15.1905Z" fill="#FF5432"/>
</svg>
