<svg width="30" height="29" viewBox="0 0 30 29" fill="none" xmlns="http://www.w3.org/2000/svg">
<path d="M12.6832 17.2C14.4228 18.9647 16.5276 20.3272 18.8499 21.1917L21.9915 18.6917C22.0847 18.6275 22.1951 18.5932 22.3082 18.5932C22.4213 18.5932 22.5317 18.6275 22.6249 18.6917L28.4582 22.45C28.6797 22.5831 28.8671 22.766 29.0058 22.984C29.1445 23.202 29.2305 23.4493 29.2572 23.7064C29.2839 23.9634 29.2504 24.2231 29.1595 24.4649C29.0685 24.7068 28.9226 24.9242 28.7332 25.1L25.9999 27.8C25.6084 28.1868 25.1273 28.4706 24.5995 28.6262C24.0717 28.7818 23.5135 28.8043 22.9749 28.6917C17.6017 27.5819 12.6492 24.9829 8.68321 21.1917C4.80528 17.3627 2.12177 12.4907 0.958207 7.16667C0.843262 6.63637 0.867253 6.08537 1.02785 5.56706C1.18845 5.04876 1.48022 4.58073 1.87487 4.20834L4.70821 1.475C4.88354 1.29482 5.09736 1.15665 5.33366 1.07082C5.56996 0.984986 5.82262 0.953725 6.07272 0.979376C6.32281 1.00503 6.56386 1.08692 6.77782 1.21894C6.99178 1.35095 7.1731 1.52965 7.30821 1.74167L11.1915 7.5C11.2585 7.59042 11.2947 7.69997 11.2947 7.8125C11.2947 7.92503 11.2585 8.03458 11.1915 8.125L8.63321 11.2C9.52119 13.4758 10.9047 15.5254 12.6832 17.2Z" fill="white"/>
</svg>
