<svg width="20" height="20" viewBox="0 0 20 20" fill="none" xmlns="http://www.w3.org/2000/svg">
<path d="M4.56763 1.66008C4.49384 1.56516 4.40069 1.48702 4.29438 1.43086C4.18807 1.3747 4.07103 1.3418 3.95103 1.33436C3.83103 1.32691 3.71082 1.34508 3.59838 1.38766C3.48594 1.43024 3.38384 1.49626 3.29888 1.58133L2.00638 2.87508C1.40263 3.48008 1.18013 4.33633 1.44388 5.08758C2.53856 8.19706 4.31925 11.0202 6.65388 13.3476C8.98129 15.6822 11.8044 17.4629 14.9139 18.5576C15.6651 18.8213 16.5214 18.5988 17.1264 17.9951L18.4189 16.7026C18.504 16.6176 18.57 16.5155 18.6126 16.4031C18.6551 16.2906 18.6733 16.1704 18.6659 16.0504C18.6584 15.9304 18.6255 15.8134 18.5694 15.7071C18.5132 15.6008 18.4351 15.5076 18.3401 15.4338L15.4564 13.1913C15.355 13.1127 15.237 13.0581 15.1114 13.0317C14.9858 13.0052 14.8559 13.0077 14.7314 13.0388L11.9939 13.7226C11.6285 13.8139 11.2457 13.8091 10.8827 13.7085C10.5197 13.608 10.189 13.4151 9.92263 13.1488L6.85263 10.0776C6.58609 9.81138 6.39304 9.48068 6.29227 9.1177C6.19151 8.75472 6.18646 8.37184 6.27763 8.00633L6.96263 5.26883C6.99377 5.14432 6.99622 5.01437 6.9698 4.88878C6.94338 4.76319 6.88879 4.64524 6.81013 4.54383L4.56763 1.66008ZM2.35513 0.638829C2.57387 0.420016 2.83667 0.250242 3.12606 0.14078C3.41544 0.0313189 3.72481 -0.0153252 4.03361 0.00394513C4.34241 0.0232155 4.64357 0.107959 4.91711 0.25255C5.19064 0.39714 5.43029 0.598268 5.62013 0.842579L7.86263 3.72508C8.27388 4.25383 8.41888 4.94258 8.25638 5.59258L7.57263 8.33008C7.53728 8.47187 7.53919 8.62039 7.57818 8.76122C7.61716 8.90205 7.6919 9.03041 7.79513 9.13383L10.8664 12.2051C10.9699 12.3085 11.0985 12.3834 11.2396 12.4224C11.3806 12.4614 11.5294 12.4632 11.6714 12.4276L14.4076 11.7438C14.7284 11.6636 15.0632 11.6574 15.3867 11.7256C15.7103 11.7938 16.014 11.9347 16.2751 12.1376L19.1576 14.3801C20.1939 15.1863 20.2889 16.7176 19.3614 17.6438L18.0689 18.9363C17.1439 19.8613 15.7614 20.2676 14.4726 19.8138C11.1741 18.6532 8.17922 16.7649 5.71013 14.2888C3.23424 11.8201 1.34589 8.82565 0.185131 5.52758C-0.267369 4.24008 0.138881 2.85633 1.06388 1.93133L2.35638 0.638829H2.35513Z" fill="#001A2B"/>
</svg>
