<svg width="20" height="20" viewBox="0 0 20 20" fill="none" xmlns="http://www.w3.org/2000/svg">
<g clip-path="url(#clip0)">
<path d="M4.56809 1.66012C4.4943 1.5652 4.40115 1.48706 4.29484 1.43091C4.18853 1.37475 4.07149 1.34185 3.95149 1.3344C3.83149 1.32695 3.71127 1.34512 3.59883 1.38771C3.48639 1.43029 3.3843 1.4963 3.29934 1.58137L2.00684 2.87512C1.40309 3.48012 1.18059 4.33638 1.44434 5.08763C2.53901 8.19711 4.31971 11.0202 6.65434 13.3476C8.98175 15.6822 11.8049 17.4629 14.9143 18.5576C15.6656 18.8214 16.5218 18.5989 17.1268 17.9951L18.4193 16.7026C18.5044 16.6177 18.5704 16.5156 18.613 16.4031C18.6556 16.2907 18.6738 16.1705 18.6663 16.0505C18.6589 15.9305 18.626 15.8134 18.5698 15.7071C18.5136 15.6008 18.4355 15.5077 18.3406 15.4339L15.4568 13.1914C15.3554 13.1127 15.2375 13.0581 15.1119 13.0317C14.9863 13.0053 14.8563 13.0077 14.7318 13.0389L11.9943 13.7226C11.6289 13.814 11.2461 13.8091 10.8831 13.7086C10.5202 13.608 10.1894 13.4152 9.92309 13.1489L6.85309 10.0776C6.58655 9.81142 6.3935 9.48073 6.29273 9.11775C6.19196 8.75477 6.18692 8.37188 6.27809 8.00638L6.96309 5.26888C6.99422 5.14437 6.99667 5.01442 6.97026 4.88883C6.94384 4.76324 6.88924 4.64529 6.81059 4.54387L4.56809 1.66012ZM2.35559 0.638875C2.57433 0.420061 2.83712 0.250288 3.12651 0.140826C3.4159 0.0313647 3.72527 -0.0152795 4.03407 0.0039909C4.34286 0.0232613 4.64403 0.108005 4.91757 0.252596C5.1911 0.397186 5.43075 0.598314 5.62059 0.842625L7.86309 3.72512C8.27434 4.25387 8.41934 4.94263 8.25684 5.59262L7.57309 8.33012C7.53774 8.47191 7.53965 8.62043 7.57863 8.76126C7.61762 8.90209 7.69236 9.03045 7.79559 9.13387L10.8668 12.2051C10.9704 12.3086 11.099 12.3834 11.24 12.4224C11.3811 12.4614 11.5299 12.4632 11.6718 12.4276L14.4081 11.7439C14.7289 11.6637 15.0637 11.6574 15.3872 11.7257C15.7107 11.7939 16.0145 11.9347 16.2756 12.1376L19.1581 14.3801C20.1943 15.1864 20.2893 16.7176 19.3618 17.6439L18.0693 18.9364C17.1443 19.8614 15.7618 20.2676 14.4731 19.8139C11.1746 18.6533 8.17968 16.7649 5.71059 14.2889C3.2347 11.8201 1.34635 8.8257 0.185589 5.52762C-0.266911 4.24012 0.139339 2.85637 1.06434 1.93137L2.35684 0.638875H2.35559Z" fill="white"/>
</g>
<defs>
<clipPath id="clip0">
<rect width="20" height="20" fill="white"/>
</clipPath>
</defs>
</svg>
