<svg width="191" height="33" viewBox="0 0 191 33" fill="none" xmlns="http://www.w3.org/2000/svg">
<g clip-path="url(#clip0)">
<path d="M0 33.0001V30.4616V3.80775L1.2691 2.53852L2.53821 1.26929H27.7562V8.74867H8.84431V12.4204H14.9988C18.8587 12.4204 21.9588 13.2968 24.299 15.0495C26.6393 16.7721 27.8094 19.2954 27.8094 22.6196C27.8094 25.8833 26.7001 28.4369 24.4814 30.2803C22.2627 32.0934 19.2538 33.0001 15.4548 33.0001H2.53821H0ZM8.84431 25.6113H14.7709C16.1082 25.6113 17.1415 25.3243 17.8709 24.7501C18.6004 24.1759 18.9651 23.3448 18.9651 22.2569C18.9651 21.2597 18.5852 20.474 17.8254 19.8998C17.096 19.3256 16.093 19.0385 14.8165 19.0385H8.84431V25.6113Z" fill="white"/>
<path d="M60.4917 1.26929H62.3913V32.7482H60.4917V1.26929Z" fill="black"/>
<path d="M35.5349 1.26929L43.0675 13.5536L50.6002 1.26929H35.5349Z" fill="white"/>
<path d="M51.1836 32.9999V14.7773L43.1096 27.1977H42.9293L34.9004 14.868V32.9999H51.1836Z" fill="white"/>
<path d="M58.3788 1.26929H60.917H191V30.4616L189.731 31.7308L188.462 33.0001H58.3788V3.80775V1.26929Z" fill="white"/>
<path d="M69.934 17.5529C69.934 16.1994 70.255 14.9543 70.8972 13.8177C71.5476 12.6724 72.4671 11.7571 73.6556 11.0716C74.8441 10.3862 76.1805 10.0435 77.6641 10.0435C80.4225 10.0435 82.4746 11.115 83.8192 13.2581L80.4358 15.7178C79.7587 14.7721 78.8913 14.2992 77.8329 14.2992C76.9394 14.2992 76.2192 14.6116 75.6728 15.2363C75.1347 15.8523 74.8657 16.6245 74.8657 17.5529C74.8657 18.4899 75.1347 19.2708 75.6728 19.8955C76.2109 20.5202 76.9001 20.8325 77.7421 20.8325C78.3056 20.8325 78.7917 20.7111 79.1997 20.4681C79.6071 20.2165 80.0278 19.8304 80.4618 19.3098L83.91 21.7956C82.4353 23.9994 80.2924 25.1013 77.4813 25.1013C76.0675 25.1013 74.7794 24.7629 73.6169 24.0862C72.4544 23.4007 71.5476 22.4811 70.8972 21.3271C70.255 20.1732 69.934 18.9151 69.934 17.5529ZM85.693 24.7499V10.3298H90.5988V17.5529L95.401 10.3298H100.06V24.7499H95.1536V17.5269L90.3646 24.7499H85.693ZM102.181 17.5529C102.181 16.1994 102.502 14.9543 103.144 13.8177C103.794 12.6724 104.714 11.7571 105.903 11.0716C107.091 10.3862 108.427 10.0435 109.911 10.0435C112.67 10.0435 114.721 11.115 116.066 13.2581L112.682 15.7178C112.006 14.7721 111.139 14.2992 110.08 14.2992C109.186 14.2992 108.466 14.6116 107.919 15.2363C107.382 15.8523 107.113 16.6245 107.113 17.5529C107.113 18.4899 107.382 19.2708 107.919 19.8955C108.458 20.5202 109.147 20.8325 109.989 20.8325C110.553 20.8325 111.038 20.7111 111.446 20.4681C111.854 20.2165 112.275 19.8304 112.708 19.3098L116.157 21.7956C114.682 23.9994 112.54 25.1013 109.729 25.1013C108.314 25.1013 107.026 24.7629 105.864 24.0862C104.701 23.4007 103.794 22.4811 103.144 21.3271C102.502 20.1732 102.181 18.9151 102.181 17.5529ZM116.847 14.4034V10.3298H130.341V14.4034H126.125V24.7499H121.063V14.4034H116.847ZM131.383 17.5529C131.383 16.5117 131.56 15.5269 131.916 14.5986C132.281 13.6702 132.779 12.872 133.413 12.2039C134.046 11.5272 134.814 10.9935 135.716 10.6031C136.627 10.204 137.607 10.0044 138.657 10.0044C139.863 10.0044 140.938 10.217 141.884 10.6421C142.83 11.0586 143.593 11.6356 144.175 12.3731C144.756 13.1019 145.194 13.9348 145.489 14.8719C145.793 15.8089 145.944 16.8197 145.944 17.9043C145.944 18.3641 145.935 18.7112 145.918 18.9454H136.262C136.462 19.7176 136.831 20.3076 137.368 20.7154C137.915 21.1145 138.587 21.3141 139.386 21.3141C140.514 21.3141 141.581 20.8239 142.587 19.8435L145.385 22.16C143.849 24.1209 141.758 25.1013 139.112 25.1013C137.611 25.1013 136.276 24.789 135.104 24.1642C133.933 23.5396 133.018 22.6546 132.359 21.5093C131.708 20.364 131.383 19.0452 131.383 17.5529ZM136.184 16.3556H141.195C141.099 15.5486 140.83 14.9109 140.388 14.4424C139.945 13.9738 139.381 13.7396 138.696 13.7396C138.045 13.7396 137.495 13.9782 137.043 14.4554C136.601 14.9239 136.314 15.5573 136.184 16.3556ZM148.104 24.7499V10.3298H153.258L156.589 15.3143L159.946 10.3298H165.087V24.7499H160.025V17.6309L156.511 22.5375L153.089 17.7351V24.7499H148.104ZM167.221 17.5529C167.221 16.1994 167.542 14.9543 168.184 13.8177C168.835 12.6724 169.755 11.7571 170.943 11.0716C172.132 10.3862 173.467 10.0435 174.951 10.0435C177.71 10.0435 179.762 11.115 181.106 13.2581L177.723 15.7178C177.046 14.7721 176.179 14.2992 175.12 14.2992C174.226 14.2992 173.507 14.6116 172.96 15.2363C172.422 15.8523 172.153 16.6245 172.153 17.5529C172.153 18.4899 172.422 19.2708 172.96 19.8955C173.498 20.5202 174.188 20.8325 175.029 20.8325C175.593 20.8325 176.079 20.7111 176.487 20.4681C176.895 20.2165 177.315 19.8304 177.749 19.3098L181.198 21.7956C179.723 23.9994 177.58 25.1013 174.769 25.1013C173.354 25.1013 172.066 24.7629 170.904 24.0862C169.741 23.4007 168.835 22.4811 168.184 21.3271C167.542 20.1732 167.221 18.9151 167.221 17.5529Z" fill="#001A2B"/>
</g>
<defs>
<clipPath id="clip0">
<rect width="191" height="33" fill="white"/>
</clipPath>
</defs>
</svg>
