<svg width="189" height="33" viewBox="0 0 189 33" fill="none" xmlns="http://www.w3.org/2000/svg">
<g clip-path="url(#clip0)">
<path d="M0 33V30.4615V3.80769L1.25581 2.53846L2.51163 1.26923H27.4655V8.74861H8.7517V12.4203H14.8418C18.6613 12.4203 21.7288 13.2967 24.0446 15.0495C26.3604 16.772 27.5182 19.2953 27.5182 22.6195C27.5182 25.8832 26.4205 28.4368 24.225 30.2802C22.0296 32.0934 19.0522 33 15.2929 33H2.51163H0ZM8.7517 25.6112H14.6162C15.9395 25.6112 16.962 25.3242 17.6838 24.75C18.4056 24.1758 18.7665 23.3448 18.7665 22.2568C18.7665 21.2596 18.3906 20.4739 17.6387 19.8997C16.9169 19.3256 15.9245 19.0385 14.6613 19.0385H8.7517V25.6112Z" fill="black"/>
<path d="M59.8583 1.26923H61.738V32.7482H59.8583V1.26923Z" fill="black"/>
<path d="M35.1628 1.26923L42.6166 13.5535L50.0704 1.26923H35.1628Z" fill="black"/>
<path d="M50.6476 33V14.7775L42.6582 27.1978H42.4798L34.5349 14.8682V33H50.6476Z" fill="black"/>
<path d="M57.7675 1.26923H60.2791H189V30.4615L187.744 31.7308L186.488 33H57.7675V3.80769V1.26923Z" fill="black"/>
<path d="M69.2017 17.553C69.2017 16.1994 69.5194 14.9544 70.1548 13.8177C70.7984 12.6725 71.7083 11.7571 72.8843 11.0717C74.0604 10.3862 75.3828 10.0435 76.8508 10.0435C79.5803 10.0435 81.611 11.115 82.9415 13.2581L79.5935 15.7179C78.9235 14.7721 78.0652 14.2993 77.0178 14.2993C76.1338 14.2993 75.4211 14.6116 74.8805 15.2364C74.348 15.8524 74.0818 16.6246 74.0818 17.553C74.0818 18.49 74.348 19.2709 74.8805 19.8956C75.4129 20.5203 76.0948 20.8326 76.9281 20.8326C77.4856 20.8326 77.9666 20.7111 78.3704 20.4682C78.7735 20.2166 79.1898 19.8305 79.6193 19.3099L83.0313 21.7957C81.5721 23.9995 79.4516 25.1014 76.67 25.1014C75.271 25.1014 73.9964 24.763 72.846 24.0863C71.6957 23.4008 70.7984 22.4811 70.1548 21.3271C69.5194 20.1732 69.2017 18.9152 69.2017 17.553ZM84.7957 24.75V10.3298H89.6501V17.553L94.4021 10.3298H99.0122V24.75H94.1572V17.5269L89.4184 24.75H84.7957ZM101.111 17.553C101.111 16.1994 101.428 14.9544 102.064 13.8177C102.707 12.6725 103.618 11.7571 104.794 11.0717C105.97 10.3862 107.292 10.0435 108.76 10.0435C111.49 10.0435 113.52 11.115 114.851 13.2581L111.503 15.7179C110.833 14.7721 109.975 14.2993 108.927 14.2993C108.043 14.2993 107.331 14.6116 106.789 15.2364C106.258 15.8524 105.991 16.6246 105.991 17.553C105.991 18.49 106.258 19.2709 106.789 19.8956C107.322 20.5203 108.004 20.8326 108.837 20.8326C109.395 20.8326 109.876 20.7111 110.279 20.4682C110.682 20.2166 111.099 19.8305 111.528 19.3099L114.941 21.7957C113.481 23.9995 111.361 25.1014 108.58 25.1014C107.18 25.1014 105.905 24.763 104.755 24.0863C103.605 23.4008 102.707 22.4811 102.064 21.3271C101.428 20.1732 101.111 18.9152 101.111 17.553ZM115.623 14.4034V10.3298H128.977V14.4034H124.805V24.75H119.795V14.4034H115.623ZM130.007 17.553C130.007 16.5118 130.183 15.527 130.535 14.5986C130.895 13.6702 131.389 12.872 132.016 12.204C132.642 11.5272 133.402 10.9936 134.295 10.6032C135.196 10.204 136.166 10.0045 137.205 10.0045C138.398 10.0045 139.463 10.2171 140.399 10.6422C141.334 11.0587 142.09 11.6357 142.665 12.3732C143.24 13.102 143.673 13.9349 143.965 14.872C144.266 15.809 144.416 16.8198 144.416 17.9043C144.416 18.3642 144.407 18.7113 144.39 18.9455H134.836C135.033 19.7177 135.398 20.3077 135.93 20.7155C136.471 21.1146 137.136 21.3141 137.926 21.3141C139.043 21.3141 140.098 20.8239 141.094 19.8435L143.862 22.1601C142.343 24.121 140.274 25.1014 137.655 25.1014C136.17 25.1014 134.849 24.789 133.69 24.1643C132.53 23.5397 131.625 22.6546 130.973 21.5094C130.329 20.3641 130.007 19.0452 130.007 17.553ZM134.758 16.3556H139.716C139.621 15.5487 139.356 14.911 138.918 14.4424C138.48 13.9739 137.922 13.7397 137.244 13.7397C136.6 13.7397 136.055 13.9783 135.608 14.4555C135.17 14.924 134.887 15.5573 134.758 16.3556ZM146.554 24.75V10.3298H151.653L154.949 15.3144L158.272 10.3298H163.358V24.75H158.349V17.631L154.872 22.5375L151.486 17.7351V24.75H146.554ZM165.47 17.553C165.47 16.1994 165.788 14.9544 166.423 13.8177C167.067 12.6725 167.977 11.7571 169.153 11.0717C170.329 10.3862 171.651 10.0435 173.119 10.0435C175.849 10.0435 177.879 11.115 179.21 13.2581L175.862 15.7179C175.192 14.7721 174.334 14.2993 173.287 14.2993C172.402 14.2993 171.69 14.6116 171.149 15.2364C170.617 15.8524 170.351 16.6246 170.351 17.553C170.351 18.49 170.617 19.2709 171.149 19.8956C171.681 20.5203 172.364 20.8326 173.196 20.8326C173.754 20.8326 174.235 20.7111 174.639 20.4682C175.042 20.2166 175.459 19.8305 175.887 19.3099L179.3 21.7957C177.841 23.9995 175.72 25.1014 172.939 25.1014C171.539 25.1014 170.265 24.763 169.114 24.0863C167.964 23.4008 167.067 22.4811 166.423 21.3271C165.788 20.1732 165.47 18.9152 165.47 17.553Z" fill="white"/>
</g>
<defs>
<clipPath id="clip0">
<rect width="189" height="33" fill="white"/>
</clipPath>
</defs>
</svg>
