<svg width="191" height="33" viewBox="0 0 191 33" fill="black" xmlns="http://www.w3.org/2000/svg">
<g clip-path="url(#clip0)">
<path d="M0 33V30.4615V3.80769L1.2691 2.53846L2.53821 1.26923H27.7562V8.74861H8.84431V12.4203H14.9988C18.8587 12.4203 21.9588 13.2967 24.299 15.0495C26.6393 16.772 27.8094 19.2953 27.8094 22.6195C27.8094 25.8832 26.7001 28.4368 24.4814 30.2802C22.2627 32.0934 19.2538 33 15.4548 33H2.53821H0ZM8.84431 25.6112H14.7709C16.1082 25.6112 17.1415 25.3242 17.8709 24.75C18.6004 24.1758 18.9651 23.3448 18.9651 22.2568C18.9651 21.2596 18.5852 20.4739 17.8254 19.8997C17.096 19.3256 16.093 19.0385 14.8165 19.0385H8.84431V25.6112Z" fill="#005B96"/>
<path d="M60.4916 1.26923H62.3912V32.7482H60.4916V1.26923Z" fill="black"/>
<path d="M35.5349 1.26923L43.0675 13.5535L50.6002 1.26923H35.5349Z" fill="#005B96"/>
<path d="M51.1836 33V14.7775L43.1096 27.1978H42.9292L34.9003 14.8682V33H51.1836Z" fill="#005B96"/>
<path d="M58.3787 1.26923H60.9169H191V30.4615L189.731 31.7308L188.462 33H58.3787V3.80769V1.26923Z" fill="#005B96"/>
<path d="M69.9339 17.553C69.9339 16.1994 70.255 14.9544 70.8971 13.8177C71.5476 12.6725 72.467 11.7571 73.6555 11.0717C74.8441 10.3862 76.1804 10.0435 77.664 10.0435C80.4224 10.0435 82.4745 11.115 83.8192 13.2581L80.4357 15.7179C79.7587 14.7721 78.8912 14.2993 77.8328 14.2993C76.9393 14.2993 76.2191 14.6116 75.6728 15.2364C75.1347 15.8524 74.8656 16.6246 74.8656 17.553C74.8656 18.49 75.1347 19.2709 75.6728 19.8956C76.2109 20.5203 76.9 20.8326 77.7421 20.8326C78.3055 20.8326 78.7916 20.7111 79.1996 20.4682C79.607 20.2166 80.0277 19.8305 80.4617 19.3099L83.9099 21.7957C82.4352 23.9995 80.2923 25.1014 77.4813 25.1014C76.0675 25.1014 74.7793 24.763 73.6168 24.0863C72.4543 23.4008 71.5476 22.4811 70.8971 21.3271C70.255 20.1732 69.9339 18.9152 69.9339 17.553ZM85.693 24.75V10.3298H90.5987V17.553L95.401 10.3298H100.06V24.75H95.1535V17.5269L90.3646 24.75H85.693ZM102.181 17.553C102.181 16.1994 102.502 14.9544 103.144 13.8177C103.794 12.6725 104.714 11.7571 105.903 11.0717C107.091 10.3862 108.427 10.0435 109.911 10.0435C112.67 10.0435 114.721 11.115 116.066 13.2581L112.682 15.7179C112.006 14.7721 111.139 14.2993 110.08 14.2993C109.186 14.2993 108.466 14.6116 107.919 15.2364C107.382 15.8524 107.113 16.6246 107.113 17.553C107.113 18.49 107.382 19.2709 107.919 19.8956C108.458 20.5203 109.147 20.8326 109.989 20.8326C110.553 20.8326 111.038 20.7111 111.446 20.4682C111.854 20.2166 112.275 19.8305 112.708 19.3099L116.157 21.7957C114.682 23.9995 112.54 25.1014 109.729 25.1014C108.314 25.1014 107.026 24.763 105.863 24.0863C104.701 23.4008 103.794 22.4811 103.144 21.3271C102.502 20.1732 102.181 18.9152 102.181 17.553ZM116.847 14.4034V10.3298H130.341V14.4034H126.125V24.75H121.063V14.4034H116.847ZM131.383 17.553C131.383 16.5118 131.56 15.527 131.916 14.5986C132.28 13.6702 132.779 12.872 133.413 12.204C134.046 11.5272 134.814 10.9936 135.716 10.6032C136.627 10.204 137.607 10.0045 138.657 10.0045C139.863 10.0045 140.938 10.2171 141.884 10.6422C142.83 11.0587 143.593 11.6357 144.175 12.3732C144.756 13.102 145.194 13.9349 145.489 14.872C145.793 15.809 145.944 16.8198 145.944 17.9043C145.944 18.3642 145.935 18.7113 145.918 18.9455H136.262C136.462 19.7177 136.831 20.3077 137.368 20.7155C137.915 21.1146 138.587 21.3141 139.386 21.3141C140.514 21.3141 141.58 20.8239 142.587 19.8435L145.385 22.1601C143.849 24.121 141.758 25.1014 139.112 25.1014C137.611 25.1014 136.276 24.789 135.104 24.1643C133.933 23.5397 133.018 22.6546 132.359 21.5094C131.708 20.3641 131.383 19.0452 131.383 17.553ZM136.184 16.3556H141.195C141.099 15.5487 140.83 14.911 140.388 14.4424C139.945 13.9739 139.381 13.7397 138.696 13.7397C138.045 13.7397 137.495 13.9783 137.043 14.4555C136.601 14.924 136.314 15.5573 136.184 16.3556ZM148.104 24.75V10.3298H153.257L156.589 15.3144L159.946 10.3298H165.087V24.75H160.025V17.631L156.511 22.5375L153.089 17.7351V24.75H148.104ZM167.221 17.553C167.221 16.1994 167.542 14.9544 168.184 13.8177C168.834 12.6725 169.755 11.7571 170.943 11.0717C172.132 10.3862 173.467 10.0435 174.951 10.0435C177.71 10.0435 179.761 11.115 181.106 13.2581L177.723 15.7179C177.046 14.7721 176.179 14.2993 175.12 14.2993C174.226 14.2993 173.507 14.6116 172.96 15.2364C172.422 15.8524 172.153 16.6246 172.153 17.553C172.153 18.49 172.422 19.2709 172.96 19.8956C173.498 20.5203 174.188 20.8326 175.029 20.8326C175.593 20.8326 176.079 20.7111 176.487 20.4682C176.895 20.2166 177.315 19.8305 177.749 19.3099L181.197 21.7957C179.723 23.9995 177.58 25.1014 174.769 25.1014C173.354 25.1014 172.066 24.763 170.904 24.0863C169.741 23.4008 168.834 22.4811 168.184 21.3271C167.542 20.1732 167.221 18.9152 167.221 17.553Z" fill="white"/>
</g>
<defs>
<clipPath id="clip0">
<rect width="191" height="33" fill="white"/>
</clipPath>
</defs>
</svg>
