<svg width="26" height="26" viewBox="0 0 26 26" fill="none" xmlns="http://www.w3.org/2000/svg">
<circle cx="13" cy="13" r="13" fill="#04B500"/>
<path d="M11.1258 17.8437C11.0642 17.8437 11.0032 17.8317 10.9463 17.8081C10.8895 17.7846 10.8378 17.75 10.7943 17.7064L6.4193 13.3317C6.37519 13.2883 6.34011 13.2366 6.31608 13.1796C6.29205 13.1226 6.27955 13.0613 6.2793 12.9995C6.27905 12.9376 6.29105 12.8763 6.31461 12.8191C6.33818 12.7618 6.37284 12.7099 6.41659 12.6661C6.46035 12.6223 6.51233 12.5877 6.56955 12.5641C6.62676 12.5406 6.68808 12.5286 6.74996 12.5288C6.81183 12.5291 6.87305 12.5416 6.93007 12.5656C6.98709 12.5896 7.03879 12.6247 7.08219 12.6688L11.1258 16.712L19.5443 8.29381C19.5877 8.2497 19.6394 8.21462 19.6964 8.19059C19.7534 8.16656 19.8147 8.15406 19.8765 8.15381C19.9384 8.15356 19.9997 8.16556 20.0569 8.18913C20.1142 8.21269 20.1661 8.24735 20.2099 8.2911C20.2537 8.33486 20.2883 8.38684 20.3119 8.44406C20.3354 8.50127 20.3474 8.56259 20.3472 8.62447C20.3469 8.68634 20.3344 8.74756 20.3104 8.80458C20.2864 8.86161 20.2513 8.91331 20.2072 8.9567L11.4572 17.7064C11.4137 17.75 11.3621 17.7845 11.3052 17.8081C11.2483 17.8317 11.1873 17.8437 11.1258 17.8437Z" fill="white"/>
</svg>
