<svg width="30" height="50" viewBox="0 0 30 50" fill="none" xmlns="http://www.w3.org/2000/svg">
<path d="M17.4998 39.5833C17.7918 39.5842 18.0749 39.4147 18.2998 39.1041C18.4263 38.9292 18.531 38.7144 18.6076 38.4721C18.6843 38.2297 18.7316 37.9644 18.7467 37.6916C18.7618 37.4187 18.7444 37.1436 18.6956 36.8819C18.6468 36.6202 18.5675 36.3771 18.4623 36.1666L12.8623 25L18.2623 13.8125C18.3661 13.5994 18.4436 13.3542 18.4904 13.091C18.5372 12.8277 18.5523 12.5517 18.5349 12.2787C18.5175 12.0058 18.4679 11.7412 18.3889 11.5003C18.3099 11.2594 18.2032 11.0469 18.0748 10.875C17.9454 10.6853 17.794 10.5422 17.6299 10.4548C17.4658 10.3673 17.2927 10.3373 17.1213 10.3666C16.9499 10.396 16.784 10.484 16.6341 10.6253C16.4841 10.7665 16.3532 10.9579 16.2498 11.1875L10.2123 23.6875C10.0284 24.0602 9.92789 24.5278 9.92789 25.0104C9.92789 25.4929 10.0284 25.9605 10.2123 26.3333L16.4623 38.8333C16.5876 39.0854 16.7469 39.2847 16.9272 39.415C17.1075 39.5453 17.3036 39.603 17.4998 39.5833Z" fill="white" fill-opacity="0.6"/>
</svg>
