<svg width="35" height="35" viewBox="0 0 35 35" fill="none" xmlns="http://www.w3.org/2000/svg">
<path d="M20.4161 27.7083C20.7568 27.709 21.087 27.5903 21.3494 27.3729C21.4971 27.2505 21.6191 27.1001 21.7086 26.9305C21.7981 26.7608 21.8532 26.5751 21.8708 26.3841C21.8884 26.1931 21.8682 26.0005 21.8112 25.8173C21.7543 25.6342 21.6618 25.464 21.539 25.3167L15.0056 17.5L21.3056 9.66875C21.4268 9.51958 21.5172 9.34793 21.5718 9.16369C21.6264 8.97945 21.644 8.78623 21.6237 8.59515C21.6034 8.40406 21.5455 8.21888 21.4534 8.05024C21.3612 7.88161 21.2367 7.73284 21.0869 7.61249C20.936 7.47973 20.7593 7.37959 20.5679 7.31836C20.3764 7.25712 20.1744 7.23612 19.9745 7.25666C19.7746 7.2772 19.5811 7.33884 19.4061 7.43772C19.2311 7.5366 19.0785 7.67058 18.9577 7.83124L11.914 16.5812C11.6995 16.8422 11.5822 17.1695 11.5822 17.5073C11.5822 17.8451 11.6995 18.1724 11.914 18.4333L19.2056 27.1833C19.3519 27.3598 19.5378 27.4993 19.7481 27.5905C19.9584 27.6818 20.1872 27.7221 20.4161 27.7083Z" fill="#CECECE"/>
</svg>
