<svg width="35" height="35" viewBox="0 0 35 35" fill="none" xmlns="http://www.w3.org/2000/svg">
<path d="M14.5839 27.7083C14.2432 27.709 13.913 27.5903 13.6506 27.3729C13.5029 27.2505 13.3809 27.1001 13.2914 26.9305C13.2019 26.7608 13.1468 26.5751 13.1292 26.3841C13.1116 26.1931 13.1318 26.0005 13.1888 25.8173C13.2457 25.6342 13.3382 25.464 13.461 25.3167L19.9944 17.5L13.6944 9.66875C13.5732 9.51958 13.4828 9.34793 13.4282 9.16369C13.3736 8.97945 13.356 8.78623 13.3763 8.59515C13.3966 8.40406 13.4545 8.21888 13.5466 8.05024C13.6388 7.88161 13.7633 7.73284 13.9131 7.61249C14.064 7.47973 14.2407 7.37959 14.4321 7.31836C14.6236 7.25712 14.8256 7.23612 15.0255 7.25666C15.2254 7.2772 15.4189 7.33884 15.5939 7.43772C15.7689 7.5366 15.9215 7.67058 16.0423 7.83124L23.086 16.5812C23.3005 16.8422 23.4178 17.1695 23.4178 17.5073C23.4178 17.8451 23.3005 18.1724 23.086 18.4333L15.7944 27.1833C15.6481 27.3598 15.4622 27.4993 15.2519 27.5905C15.0416 27.6818 14.8128 27.7221 14.5839 27.7083Z" fill="#CECECE"/>
</svg>
