<svg width="30" height="50" viewBox="0 0 30 50" fill="none" xmlns="http://www.w3.org/2000/svg">
<path d="M12.5002 39.5833C12.2082 39.5843 11.9251 39.4147 11.7002 39.1041C11.5737 38.9292 11.469 38.7144 11.3924 38.4721C11.3157 38.2297 11.2684 37.9644 11.2533 37.6916C11.2382 37.4187 11.2556 37.1436 11.3044 36.8819C11.3532 36.6202 11.4325 36.3772 11.5377 36.1666L17.1377 25L11.7377 13.8125C11.6339 13.5994 11.5564 13.3542 11.5096 13.091C11.4628 12.8277 11.4477 12.5517 11.4651 12.2787C11.4825 12.0058 11.5321 11.7412 11.6111 11.5003C11.6901 11.2594 11.7968 11.0469 11.9252 10.875C12.0546 10.6853 12.206 10.5422 12.3701 10.4548C12.5342 10.3673 12.7073 10.3373 12.8787 10.3666C13.0501 10.396 13.216 10.484 13.3659 10.6253C13.5159 10.7665 13.6468 10.9579 13.7502 11.1875L19.7877 23.6875C19.9716 24.0602 20.0721 24.5278 20.0721 25.0104C20.0721 25.4929 19.9716 25.9605 19.7877 26.3333L13.5377 38.8333C13.4124 39.0854 13.2531 39.2847 13.0728 39.415C12.8925 39.5453 12.6964 39.603 12.5002 39.5833Z" fill="white" fill-opacity="0.6"/>
</svg>
